# Blender v2.93.1 OBJ File: '210730 P0210 starting to texture.blend'
# www.blender.org
mtllib 210730 P0210 starting to texture.mtl
o Cylinder
v 0.382683 0.000000 -0.923880
v 0.923880 0.000000 -0.382683
v 0.923880 0.000000 0.382683
v 0.382683 0.000000 0.923880
v -0.382684 0.000000 0.923879
v -0.923880 0.000000 0.382683
v -0.923880 0.000000 -0.382683
v -0.382684 0.000000 -0.923879
v 0.923880 0.650830 -0.382683
v 0.382683 0.650830 -0.923880
v 0.923880 0.650830 0.382683
v 0.382683 0.650830 0.923880
v -0.382684 0.650830 0.923879
v -0.923880 0.650830 0.382683
v -0.923880 0.650830 -0.382683
v -0.382684 0.650830 -0.923879
v 0.382683 0.090571 -0.923880
v 0.923880 0.090571 -0.382683
v 0.923880 0.090571 0.382683
v 0.382683 0.090571 0.923880
v -0.382684 0.090571 0.923879
v -0.923880 0.090571 0.382683
v -0.923880 0.090571 -0.382683
v -0.382684 0.090571 -0.923879
vt 0.370899 0.305929
vt 0.370899 0.376666
vt 0.274266 0.376666
vt 0.274266 0.305929
vt 0.177632 0.376666
vt 0.177632 0.305929
vt 0.080999 0.376666
vt 0.080999 0.305928
vt 0.854067 0.305928
vt 0.854067 0.376666
vt 0.757433 0.376666
vt 0.757433 0.305929
vt 0.660800 0.376666
vt 0.660800 0.305929
vt 0.564166 0.376666
vt 0.564166 0.305929
vt 0.467533 0.376666
vt 0.467533 0.305929
vt 0.339180 0.733334
vt 0.435814 0.733334
vt 0.504144 0.801665
vt 0.504144 0.898298
vt 0.435814 0.966628
vt 0.339180 0.966628
vt 0.270850 0.898298
vt 0.270850 0.801665
vt 0.640957 0.597485
vt 0.572627 0.665815
vt 0.475993 0.665816
vt 0.407663 0.597485
vt 0.407663 0.500852
vt 0.475993 0.432522
vt 0.572627 0.432522
vt 0.640957 0.500852
vt 0.467533 0.294493
vt 0.370899 0.294493
vt 0.564166 0.294493
vt 0.660800 0.294493
vt 0.757433 0.294493
vt 0.854067 0.294493
vt 0.177632 0.294493
vt 0.080999 0.294493
vt 0.274266 0.294493
vn 0.7071 0.0000 -0.7071
vn 1.0000 0.0000 0.0000
vn 0.7071 0.0000 0.7071
vn -0.0000 0.0000 1.0000
vn -0.7071 0.0000 0.7071
vn -1.0000 0.0000 0.0000
vn -0.7071 0.0000 -0.7071
vn -0.0000 0.0000 -1.0000
vn 0.0000 -1.0000 0.0000
vn 0.0000 1.0000 0.0000
usemtl Material.001
s off
f 17/1/1 10/2/1 9/3/1 18/4/1
f 18/4/2 9/3/2 11/5/2 19/6/2
f 19/6/3 11/5/3 12/7/3 20/8/3
f 20/9/4 12/10/4 13/11/4 21/12/4
f 21/12/5 13/11/5 14/13/5 22/14/5
f 22/14/6 14/13/6 15/15/6 23/16/6
f 23/16/7 15/15/7 16/17/7 24/18/7
f 24/18/8 16/17/8 10/2/8 17/1/8
f 1/19/9 2/20/9 3/21/9 4/22/9 5/23/9 6/24/9 7/25/9 8/26/9
f 9/27/10 10/28/10 16/29/10 15/30/10 14/31/10 13/32/10 12/33/10 11/34/10
f 8/35/8 24/18/8 17/1/8 1/36/8
f 7/37/7 23/16/7 24/18/7 8/35/7
f 6/38/6 22/14/6 23/16/6 7/37/6
f 5/39/5 21/12/5 22/14/5 6/38/5
f 4/40/4 20/9/4 21/12/4 5/39/4
f 3/41/3 19/6/3 20/8/3 4/42/3
f 2/43/2 18/4/2 19/6/2 3/41/2
f 1/36/1 17/1/1 18/4/1 2/43/1
o Cylinder.001
v 0.380549 0.842433 -0.918726
v 0.918726 0.842433 -0.380549
v 0.918726 0.842433 0.380549
v 0.380549 0.842433 0.918726
v -0.380549 0.842433 0.918726
v -0.918726 0.842433 0.380549
v -0.918726 0.842433 -0.380549
v -0.380549 0.842433 -0.918726
v 0.766149 1.144311 -0.317349
v 0.317349 1.144311 -0.766149
v 0.766149 1.144311 0.317349
v 0.317349 1.144311 0.766149
v -0.317349 1.144311 0.766149
v -0.766149 1.144311 0.317349
v -0.766149 1.144311 -0.317349
v -0.317350 1.144311 -0.766149
vt 0.781685 0.452410
vt 0.813802 0.481668
vt 0.771632 0.549812
vt 0.731119 0.534124
vt 0.713469 0.628584
vt 0.756914 0.628584
vt 0.771633 0.707357
vt 0.731119 0.723044
vt 0.781685 0.804758
vt 0.813802 0.775500
vt 0.877731 0.823820
vt 0.858346 0.862701
vt 0.950757 0.368116
vt 0.954795 0.411373
vt 0.877731 0.433349
vt 0.858346 0.394468
vt 0.380013 0.088062
vt 0.380013 0.184157
vt 0.312065 0.252105
vt 0.215969 0.252105
vt 0.148021 0.184157
vt 0.148021 0.088062
vt 0.215970 0.020113
vt 0.312064 0.020113
vt 0.616692 0.028009
vt 0.673357 0.084673
vt 0.673357 0.164809
vt 0.616692 0.221474
vt 0.536556 0.221474
vt 0.479892 0.164809
vt 0.479892 0.084673
vt 0.536556 0.028009
vt 0.954795 0.845795
vt 0.950757 0.889052
vn 0.8925 0.4511 0.0000
vn 0.0000 0.4511 0.8925
vn -0.8925 0.4511 -0.0000
vn 0.0000 0.4511 -0.8925
vn 0.0000 -1.0000 0.0000
vn 0.0000 1.0000 0.0000
vn 0.6311 0.4511 -0.6311
vn 0.6311 0.4511 0.6311
vn -0.6311 0.4511 0.6311
vn -0.6311 0.4511 -0.6311
usemtl Material.001
s off
f 26/44/11 33/45/11 35/46/11 27/47/11
f 28/48/12 36/49/12 37/50/12 29/51/12
f 30/52/13 38/53/13 39/54/13 31/55/13
f 32/56/14 40/57/14 34/58/14 25/59/14
f 25/60/15 26/61/15 27/62/15 28/63/15 29/64/15 30/65/15 31/66/15 32/67/15
f 39/68/16 38/69/16 37/70/16 36/71/16 35/72/16 33/73/16 34/74/16 40/75/16
f 25/59/17 34/58/17 33/45/17 26/44/17
f 27/47/18 35/46/18 36/49/18 28/48/18
f 29/51/19 37/50/19 38/53/19 30/52/19
f 31/55/20 39/54/20 40/76/20 32/77/20
o Cube.002_Cube.001
v -0.923880 0.000000 -0.273955
v -0.923880 0.547910 -0.273955
v -0.923879 0.000000 0.273955
v -0.923879 0.547910 0.273955
v -1.471790 0.000000 -0.273955
v -1.266704 0.378308 -0.273955
v -1.471789 0.000000 0.273955
v -1.266704 0.378308 0.273955
vt 0.175873 0.886942
vt 0.175873 0.817764
vt 0.245050 0.817764
vt 0.245050 0.886942
vt 0.240540 0.967734
vt 0.240540 0.898551
vt 0.197252 0.919966
vt 0.171367 0.967723
vt 0.094066 0.900618
vt 0.094066 0.846286
vt 0.163244 0.846286
vt 0.163244 0.900618
vt 0.171381 0.967706
vt 0.197283 0.919934
vt 0.240564 0.898523
vt 0.240564 0.967695
vt 0.094066 0.969796
vt 0.163244 0.969796
vt 0.094066 0.797994
vt 0.163244 0.797994
vn 1.0000 0.0000 -0.0000
vn 0.0000 -0.0000 1.0000
vn -0.8791 0.4766 0.0000
vn -0.0000 0.0000 -1.0000
vn 0.0000 -1.0000 0.0000
vn -0.4434 0.8963 0.0000
usemtl Material.001
s off
f 41/78/21 42/79/21 44/80/21 43/81/21
f 43/82/22 44/83/22 48/84/22 47/85/22
f 47/86/23 48/87/23 46/88/23 45/89/23
f 45/90/24 46/91/24 42/92/24 41/93/24
f 43/94/25 47/86/25 45/89/25 41/95/25
f 48/87/26 44/96/26 42/97/26 46/88/26
o Cylinder.003
v 0.308648 0.650830 -0.745143
v 0.745143 0.650830 -0.308648
v 0.745143 0.650830 0.308648
v 0.308648 0.650830 0.745143
v -0.308648 0.650830 0.745143
v -0.745143 0.650830 0.308648
v -0.745143 0.650830 -0.308648
v -0.308648 0.650830 -0.745143
v 0.745143 0.842433 -0.308648
v 0.308648 0.842433 -0.745143
v 0.745143 0.842433 0.308648
v 0.308648 0.842433 0.745143
v -0.308648 0.842433 0.745143
v -0.745143 0.842433 0.308648
v -0.745143 0.842433 -0.308648
v -0.308648 0.842433 -0.745143
vt 0.719103 0.880948
vt 0.719103 0.803010
vt 0.743295 0.803010
vt 0.743295 0.880948
vt 0.518921 0.808896
vt 0.574032 0.753785
vt 0.651971 0.753785
vt 0.707081 0.808896
vt 0.707082 0.886834
vt 0.651971 0.941945
vt 0.574032 0.941945
vt 0.518921 0.886834
vt 0.719103 0.880948
vt 0.719103 0.803010
vt 0.743295 0.803010
vt 0.743295 0.880948
vt 0.719103 0.880948
vt 0.719103 0.803010
vt 0.743295 0.803010
vt 0.743295 0.880948
vt 0.719103 0.880948
vt 0.719103 0.803010
vt 0.743295 0.803010
vt 0.743295 0.880948
vt 0.719103 0.880948
vt 0.719103 0.803010
vt 0.743295 0.803010
vt 0.743295 0.880948
vt 0.719103 0.880948
vt 0.719103 0.803010
vt 0.743295 0.803010
vt 0.743295 0.880948
vt 0.719103 0.880948
vt 0.719103 0.803010
vt 0.743295 0.803010
vt 0.743295 0.880948
vt 0.719103 0.880948
vt 0.719103 0.803010
vt 0.743295 0.803010
vt 0.743295 0.880948
vt 0.189201 0.631703
vt 0.191279 0.633781
vt 0.191279 0.636719
vt 0.189201 0.638797
vt 0.186263 0.638797
vt 0.184185 0.636719
vt 0.184185 0.633781
vt 0.186263 0.631703
vn 0.7071 0.0000 -0.7071
vn 0.0000 1.0000 0.0000
vn -0.0000 0.0000 -1.0000
vn -1.0000 0.0000 0.0000
vn -0.0000 0.0000 1.0000
vn 1.0000 0.0000 0.0000
vn -0.7071 0.0000 -0.7071
vn -0.7071 0.0000 0.7071
vn 0.7071 0.0000 0.7071
vn 0.0000 -1.0000 -0.0000
usemtl Material.001
s off
f 50/98/27 49/99/27 58/100/27 57/101/27
f 57/102/28 58/103/28 64/104/28 63/105/28 62/106/28 61/107/28 60/108/28 59/109/28
f 49/110/29 56/111/29 64/112/29 58/113/29
f 55/114/30 54/115/30 62/116/30 63/117/30
f 53/118/31 52/119/31 60/120/31 61/121/31
f 51/122/32 50/123/32 57/124/32 59/125/32
f 56/126/33 55/127/33 63/128/33 64/129/33
f 54/130/34 53/131/34 61/132/34 62/133/34
f 52/134/35 51/135/35 59/136/35 60/137/35
f 50/138/36 51/139/36 52/140/36 53/141/36 54/142/36 55/143/36 56/144/36 49/145/36
o Cube.001_Cube.009
v -0.273955 0.000000 0.923880
v -0.273955 0.547910 0.923880
v 0.273955 0.000000 0.923879
v 0.273955 0.547910 0.923879
v -0.273955 0.000000 1.471790
v -0.273955 0.378308 1.266704
v 0.273955 0.000000 1.471789
v 0.273955 0.378308 1.266704
vt 0.175873 0.886942
vt 0.175873 0.817764
vt 0.245050 0.817764
vt 0.245050 0.886942
vt 0.240540 0.967734
vt 0.240540 0.898551
vt 0.197252 0.919966
vt 0.171367 0.967723
vt 0.094066 0.900618
vt 0.094066 0.846286
vt 0.163244 0.846286
vt 0.163244 0.900618
vt 0.171381 0.967706
vt 0.197283 0.919934
vt 0.240564 0.898523
vt 0.240564 0.967695
vt 0.094066 0.969796
vt 0.163244 0.969796
vt 0.094066 0.797994
vt 0.163244 0.797994
vn -0.0000 0.0000 -1.0000
vn 1.0000 -0.0000 -0.0000
vn 0.0000 0.4766 0.8791
vn -1.0000 0.0000 0.0000
vn 0.0000 -1.0000 0.0000
vn 0.0000 0.8963 0.4434
usemtl Material.001
s off
f 65/146/37 66/147/37 68/148/37 67/149/37
f 67/150/38 68/151/38 72/152/38 71/153/38
f 71/154/39 72/155/39 70/156/39 69/157/39
f 69/158/40 70/159/40 66/160/40 65/161/40
f 67/162/41 71/154/41 69/157/41 65/163/41
f 72/155/42 68/164/42 66/165/42 70/156/42
o Cube.003_Cube.010
v 0.923880 0.000000 0.273955
v 0.923880 0.547910 0.273955
v 0.923879 0.000000 -0.273955
v 0.923879 0.547910 -0.273955
v 1.471790 0.000000 0.273955
v 1.266704 0.378308 0.273955
v 1.471789 0.000000 -0.273955
v 1.266704 0.378308 -0.273955
vt 0.175873 0.886942
vt 0.175873 0.817764
vt 0.245050 0.817764
vt 0.245050 0.886942
vt 0.240540 0.967734
vt 0.240540 0.898551
vt 0.197252 0.919966
vt 0.171367 0.967723
vt 0.094066 0.900618
vt 0.094066 0.846286
vt 0.163244 0.846286
vt 0.163244 0.900618
vt 0.171381 0.967706
vt 0.197283 0.919934
vt 0.240564 0.898523
vt 0.240564 0.967695
vt 0.094066 0.969796
vt 0.163244 0.969796
vt 0.094066 0.797994
vt 0.163244 0.797994
vn -1.0000 0.0000 0.0000
vn -0.0000 -0.0000 -1.0000
vn 0.8791 0.4766 -0.0000
vn 0.0000 0.0000 1.0000
vn 0.0000 -1.0000 0.0000
vn 0.4434 0.8963 -0.0000
usemtl Material.001
s off
f 73/166/43 74/167/43 76/168/43 75/169/43
f 75/170/44 76/171/44 80/172/44 79/173/44
f 79/174/45 80/175/45 78/176/45 77/177/45
f 77/178/46 78/179/46 74/180/46 73/181/46
f 75/182/47 79/174/47 77/177/47 73/183/47
f 80/175/48 76/184/48 74/185/48 78/176/48
o Cube.007_Cube.011
v 0.273955 0.000000 -0.923880
v 0.273955 0.547910 -0.923880
v -0.273955 0.000000 -0.923879
v -0.273955 0.547910 -0.923879
v 0.273954 0.000000 -1.471790
v 0.273955 0.378308 -1.266704
v -0.273956 0.000000 -1.471789
v -0.273955 0.378308 -1.266704
vt 0.175873 0.886942
vt 0.175873 0.817764
vt 0.245050 0.817764
vt 0.245050 0.886942
vt 0.240540 0.967734
vt 0.240540 0.898551
vt 0.197252 0.919966
vt 0.171367 0.967723
vt 0.094066 0.900618
vt 0.094066 0.846286
vt 0.163244 0.846286
vt 0.163244 0.900618
vt 0.171381 0.967706
vt 0.197283 0.919934
vt 0.240564 0.898523
vt 0.240564 0.967695
vt 0.094066 0.969796
vt 0.163244 0.969796
vt 0.094066 0.797994
vt 0.163244 0.797994
vn 0.0000 0.0000 1.0000
vn -1.0000 -0.0000 0.0000
vn -0.0000 0.4766 -0.8791
vn 1.0000 0.0000 -0.0000
vn 0.0000 -1.0000 0.0000
vn -0.0000 0.8963 -0.4434
usemtl Material.001
s off
f 81/186/49 82/187/49 84/188/49 83/189/49
f 83/190/50 84/191/50 88/192/50 87/193/50
f 87/194/51 88/195/51 86/196/51 85/197/51
f 85/198/52 86/199/52 82/200/52 81/201/52
f 83/202/53 87/194/53 85/197/53 81/203/53
f 88/195/54 84/204/54 82/205/54 86/196/54
o Plane
v -0.487067 1.150743 -0.487067
v -0.306452 1.150743 -0.487067
v -0.487067 1.150743 -0.306452
v -0.306452 1.150743 -0.306452
v -0.668436 1.150743 -0.153226
v -0.153226 1.150743 -0.669383
v -0.306452 1.150743 -0.153226
v -0.487067 1.150743 -0.153226
v -0.668436 1.150743 -0.153226
v -0.153226 1.150743 -0.306452
v -0.153226 1.150743 -0.487067
v -0.153226 1.150743 -0.669383
v -0.153226 1.150743 -0.153226
v 0.487067 1.150743 -0.487067
v 0.306452 1.150743 -0.487067
v 0.487067 1.150743 -0.306452
v 0.306452 1.150743 -0.306452
v -0.000000 1.150743 -0.306452
v -0.000000 1.150743 -0.487067
v 0.668436 1.150743 -0.153226
v 0.153226 1.150743 -0.669383
v -0.000000 1.150743 -0.669383
v 0.306452 1.150743 -0.153226
v 0.487067 1.150743 -0.153226
v -0.000000 1.150743 -0.153226
v 0.668436 1.150743 -0.153226
v 0.153226 1.150743 -0.306452
v 0.153226 1.150743 -0.487067
v 0.153226 1.150743 -0.669383
v 0.153226 1.150743 -0.153226
v -0.487067 1.150743 0.487067
v -0.306452 1.150743 0.487067
v -0.487067 1.150743 0.306452
v -0.306452 1.150743 0.306452
v -0.306452 1.150743 0.000000
v -0.487067 1.150743 0.000000
v -0.668436 1.150743 0.153226
v -0.668436 1.150743 0.000000
v -0.153226 1.150743 0.669383
v -0.306452 1.150743 0.153226
v -0.487067 1.150743 0.153226
v -0.668436 1.150743 0.153226
v -0.153226 1.150743 0.306452
v -0.153226 1.150743 0.487067
v -0.153226 1.150743 0.000000
v -0.153226 1.150743 0.669383
v -0.153226 1.150743 0.153226
v 0.487067 1.150743 0.487067
v 0.306452 1.150743 0.487067
v 0.487067 1.150743 0.306452
v 0.306452 1.150743 0.306452
v 0.306452 1.150743 0.000000
v 0.487067 1.150743 0.000000
v -0.000000 1.150743 0.306452
v -0.000000 1.150743 0.487067
v -0.000000 1.150743 0.000000
v 0.668436 1.150743 0.153226
v 0.668436 1.150743 0.000000
v 0.153226 1.150743 0.669383
v -0.000000 1.150743 0.669383
v 0.306452 1.150743 0.153226
v 0.487067 1.150743 0.153226
v -0.000000 1.150743 0.153226
v 0.668436 1.150743 0.153226
v 0.153226 1.150743 0.306452
v 0.153226 1.150743 0.487067
v 0.153226 1.150743 0.000000
v 0.153226 1.150743 0.669383
v 0.153226 1.150743 0.153226
vt 0.766624 0.192486
vt 0.797050 0.192486
vt 0.797050 0.222911
vt 0.766624 0.222911
vt 0.822862 0.192486
vt 0.822862 0.222911
vt 0.797050 0.166674
vt 0.766624 0.166674
vt 0.766624 0.140862
vt 0.797050 0.140862
vt 0.822862 0.166674
vt 0.822862 0.140862
vt 0.846057 0.232255
vt 0.871869 0.232255
vt 0.846057 0.262888
vt 0.846057 0.262888
vt 0.794433 0.232255
vt 0.820245 0.232255
vt 0.820245 0.262888
vt 0.794433 0.262888
vt 0.820245 0.232255
vt 0.820245 0.262888
vt 0.848674 0.192486
vt 0.848674 0.166674
vt 0.768621 0.232255
vt 0.794433 0.262888
vt 0.848674 0.140862
vt 0.848674 0.222911
vt 0.930723 0.192486
vt 0.930723 0.222911
vt 0.900297 0.222911
vt 0.900297 0.192486
vt 0.874486 0.192486
vt 0.874486 0.222911
vt 0.900297 0.166674
vt 0.900297 0.140862
vt 0.930723 0.140862
vt 0.930723 0.166674
vt 0.874486 0.166674
vt 0.874486 0.140862
vt 0.794433 0.232255
vt 0.794433 0.262888
vt 0.794433 0.262888
vt 0.768621 0.232255
vt 0.846057 0.232255
vt 0.846057 0.262888
vt 0.820245 0.232255
vt 0.820245 0.262888
vt 0.871869 0.232255
vt 0.846057 0.262888
vt 0.766624 0.089238
vt 0.766624 0.058812
vt 0.797050 0.058812
vt 0.797050 0.089238
vt 0.822862 0.089238
vt 0.822862 0.058812
vt 0.797050 0.115050
vt 0.766624 0.115050
vt 0.822862 0.115050
vt 0.794433 0.232255
vt 0.794433 0.262888
vt 0.794433 0.262888
vt 0.768621 0.232255
vt 0.846057 0.232255
vt 0.846057 0.262888
vt 0.820245 0.262888
vt 0.820245 0.232255
vt 0.848674 0.089238
vt 0.848674 0.115050
vt 0.871869 0.232255
vt 0.846057 0.262888
vt 0.848674 0.058812
vt 0.930723 0.089238
vt 0.900297 0.089238
vt 0.900297 0.058812
vt 0.930723 0.058812
vt 0.874486 0.089238
vt 0.874486 0.058812
vt 0.900297 0.115050
vt 0.930723 0.115050
vt 0.874486 0.115050
vt 0.846057 0.232255
vt 0.871869 0.232255
vt 0.846057 0.262888
vt 0.846057 0.262888
vt 0.794433 0.232255
vt 0.794433 0.262888
vt 0.768621 0.232255
vt 0.794433 0.262888
vn 0.0000 1.0000 0.0000
usemtl Material.001
s off
f 91/206/55 92/207/55 90/208/55 89/209/55
f 98/210/55 99/211/55 90/208/55 92/207/55
f 95/212/55 96/213/55 124/214/55 123/215/55
f 101/216/55 95/212/55 123/215/55 133/217/55
f 96/218/55 91/219/55 93/220/55 97/221/55
f 99/222/55 107/223/55 110/224/55 100/225/55
f 124/226/55 96/218/55 97/221/55 126/227/55
f 98/210/55 92/207/55 95/212/55 101/216/55
f 92/207/55 91/206/55 96/213/55 95/212/55
f 106/228/55 98/210/55 101/216/55 113/229/55
f 90/230/55 99/222/55 100/225/55 94/231/55
f 113/229/55 101/216/55 133/217/55 144/232/55
f 106/228/55 107/233/55 99/211/55 98/210/55
f 104/234/55 102/235/55 103/236/55 105/237/55
f 115/238/55 105/237/55 103/236/55 116/239/55
f 111/240/55 140/241/55 141/242/55 112/243/55
f 118/244/55 155/245/55 140/241/55 111/240/55
f 112/246/55 114/247/55 108/248/55 104/249/55
f 116/250/55 117/251/55 110/224/55 107/223/55
f 141/252/55 146/253/55 114/247/55 112/246/55
f 115/238/55 118/244/55 111/240/55 105/237/55
f 105/237/55 111/240/55 112/243/55 104/234/55
f 106/228/55 113/229/55 118/244/55 115/238/55
f 103/254/55 109/255/55 117/251/55 116/250/55
f 113/229/55 144/232/55 155/245/55 118/244/55
f 106/228/55 115/238/55 116/239/55 107/233/55
f 121/256/55 119/257/55 120/258/55 122/259/55
f 131/260/55 122/259/55 120/258/55 132/261/55
f 128/262/55 123/215/55 124/214/55 129/263/55
f 135/264/55 133/217/55 123/215/55 128/262/55
f 129/265/55 130/266/55 125/267/55 121/268/55
f 132/269/55 134/270/55 148/271/55 143/272/55
f 124/226/55 126/227/55 130/266/55 129/265/55
f 131/260/55 135/264/55 128/262/55 122/259/55
f 122/259/55 128/262/55 129/263/55 121/256/55
f 142/273/55 151/274/55 135/264/55 131/260/55
f 120/275/55 127/276/55 134/270/55 132/269/55
f 151/274/55 144/232/55 133/217/55 135/264/55
f 142/273/55 131/260/55 132/261/55 143/277/55
f 138/278/55 139/279/55 137/280/55 136/281/55
f 153/282/55 154/283/55 137/280/55 139/279/55
f 149/284/55 150/285/55 141/242/55 140/241/55
f 157/286/55 149/284/55 140/241/55 155/245/55
f 150/287/55 138/288/55 145/289/55 152/290/55
f 154/291/55 143/272/55 148/271/55 156/292/55
f 141/252/55 150/287/55 152/290/55 146/253/55
f 153/282/55 139/279/55 149/284/55 157/286/55
f 139/279/55 138/278/55 150/285/55 149/284/55
f 142/273/55 153/282/55 157/286/55 151/274/55
f 137/293/55 154/291/55 156/292/55 147/294/55
f 151/274/55 157/286/55 155/245/55 144/232/55
f 142/273/55 143/277/55 154/283/55 153/282/55
