# Blender v2.93.1 OBJ File: ''
# www.blender.org
mtllib envelope.mtl
o EnvelopeFIleFront
v -0.707258 0.140708 0.500000
v 0.707258 0.140708 0.500000
v -0.707258 0.140708 -0.500000
v 0.707258 0.140708 -0.500000
v 0.707258 -0.000000 0.500000
v -0.707258 0.000000 0.500000
v 0.707258 -0.000000 -0.500000
v -0.707258 0.000000 -0.500000
v 0.707258 -0.000000 0.000000
v -0.386315 0.000000 0.500000
v -0.386315 0.000000 -0.500000
v -0.386315 0.000000 0.000000
v -0.707258 -0.028395 0.500000
v -0.707258 -0.028395 -0.500000
v -0.707258 -0.028395 0.000000
v -0.386315 -0.028395 0.000000
v -0.707258 0.140708 0.000000
v 0.707258 0.140708 0.000000
vt 0.000000 0.500000
vt 1.000000 0.500000
vt 1.000000 1.000000
vt 0.000000 1.000000
vt 0.000000 1.000000
vt 0.773107 1.000000
vt 1.000000 1.000000
vt 0.000000 0.000000
vt 1.000000 0.000000
vt 0.773107 0.000000
vt 0.000000 0.000000
vt 1.000000 0.000000
vt 0.000000 0.500000
vt 0.000000 0.000000
vt 0.000000 0.000000
vt 0.000000 0.000000
vt 0.000000 0.000000
vt 1.000000 0.500000
vt 1.000000 0.000000
vt 1.000000 1.000000
vt 0.773107 0.500000
vt 0.773107 0.500000
vn 0.0000 1.0000 0.0000
vn 0.0000 0.0000 -1.0000
vn 0.0000 0.0000 1.0000
vn 1.0000 0.0000 0.0000
vn -1.0000 0.0000 0.0000
vn -0.0000 -1.0000 0.0000
usemtl EnvelopeFIleFront
s off
f 17/1/1 18/2/1 4/3/1 3/4/1
f 4/3/2 7/5/2 11/6/2 8/7/2 3/4/2
f 1/8/3 6/9/3 10/10/3 5/11/3 2/12/3
f 2/12/4 5/11/4 9/13/4 7/5/4 4/3/4 18/2/4
f 1/8/1 2/12/1 18/2/1 17/1/1
f 3/14/5 14/15/5 15/16/5 17/17/5
f 1/8/5 17/1/5 15/18/5 13/19/5
f 14/20/3 13/19/3 15/18/3
usemtl EnvelopeFIleBack
f 5/11/6 10/10/6 12/21/6 9/13/6
f 9/13/6 12/21/6 11/6/6 7/5/6
f 11/6/6 12/21/6 8/7/6
f 10/10/6 6/9/6 12/21/6
f 16/22/6 15/18/6 14/20/6
f 13/19/6 15/18/6 16/22/6
