{
    "asset" : {
        "generator" : "Khronos glTF Blender I/O v1.6.16",
        "version" : "2.0"
    },
    "scene" : 0,
    "scenes" : [
        {
            "name" : "Scene",
            "nodes" : [
                0,
                1,
                2,
                3,
                4,
                5,
                6,
                7
            ]
        }
    ],
    "nodes" : [
        {
            "mesh" : 0,
            "name" : "Base",
            "rotation" : [
                0,
                -0.1950903683900833,
                0,
                0.9807853698730469
            ]
        },
        {
            "mesh" : 1,
            "name" : "TopPart",
            "rotation" : [
                0,
                -0.1950903683900833,
                0,
                0.9807853698730469
            ],
            "translation" : [
                0,
                0.8424334526062012,
                0
            ]
        },
        {
            "mesh" : 2,
            "name" : "side_Parts",
            "rotation" : [
                0,
                1,
                0,
                -1.6292068494294654e-07
            ],
            "translation" : [
                -0.9238795042037964,
                0,
                0
            ]
        },
        {
            "mesh" : 3,
            "name" : "MiddleSection",
            "rotation" : [
                0,
                -0.1950903683900833,
                0,
                0.9807853698730469
            ]
        },
        {
            "mesh" : 4,
            "name" : "side_Parts.001",
            "rotation" : [
                0,
                0.7071065902709961,
                0,
                -0.7071069478988647
            ],
            "translation" : [
                0,
                0,
                0.9238795042037964
            ]
        },
        {
            "mesh" : 5,
            "name" : "side_Parts.002",
            "rotation" : [
                0,
                0,
                0,
                -1
            ],
            "translation" : [
                0.9238795042037964,
                0,
                0
            ]
        },
        {
            "mesh" : 6,
            "name" : "side_Parts.003",
            "rotation" : [
                0,
                -0.7071070671081543,
                0,
                -0.7071064710617065
            ],
            "translation" : [
                0,
                0,
                -0.9238795042037964
            ]
        },
        {
            "mesh" : 7,
            "name" : "AR_Target",
            "scale" : [
                0.48706716299057007,
                0.48706716299057007,
                0.48706716299057007
            ],
            "translation" : [
                0,
                1.150742530822754,
                0
            ]
        }
    ],
    "materials" : [
        {
            "doubleSided" : true,
            "name" : "Material.001",
            "pbrMetallicRoughness" : {
                "baseColorTexture" : {
                    "index" : 0
                },
                "metallicFactor" : 0,
                "roughnessFactor" : 0.5
            }
        }
    ],
    "meshes" : [
        {
            "name" : "Cylinder",
            "primitives" : [
                {
                    "attributes" : {
                        "POSITION" : 0,
                        "NORMAL" : 1,
                        "TEXCOORD_0" : 2
                    },
                    "indices" : 3,
                    "material" : 0
                }
            ]
        },
        {
            "name" : "Cylinder.001",
            "primitives" : [
                {
                    "attributes" : {
                        "POSITION" : 4,
                        "NORMAL" : 5,
                        "TEXCOORD_0" : 6
                    },
                    "indices" : 7,
                    "material" : 0
                }
            ]
        },
        {
            "name" : "Cube.001",
            "primitives" : [
                {
                    "attributes" : {
                        "POSITION" : 8,
                        "NORMAL" : 9,
                        "TEXCOORD_0" : 10
                    },
                    "indices" : 11,
                    "material" : 0
                }
            ]
        },
        {
            "name" : "Cylinder.003",
            "primitives" : [
                {
                    "attributes" : {
                        "POSITION" : 12,
                        "NORMAL" : 13,
                        "TEXCOORD_0" : 14
                    },
                    "indices" : 15,
                    "material" : 0
                }
            ]
        },
        {
            "name" : "Cube.009",
            "primitives" : [
                {
                    "attributes" : {
                        "POSITION" : 16,
                        "NORMAL" : 17,
                        "TEXCOORD_0" : 18
                    },
                    "indices" : 11,
                    "material" : 0
                }
            ]
        },
        {
            "name" : "Cube.010",
            "primitives" : [
                {
                    "attributes" : {
                        "POSITION" : 19,
                        "NORMAL" : 20,
                        "TEXCOORD_0" : 21
                    },
                    "indices" : 11,
                    "material" : 0
                }
            ]
        },
        {
            "name" : "Cube.011",
            "primitives" : [
                {
                    "attributes" : {
                        "POSITION" : 22,
                        "NORMAL" : 23,
                        "TEXCOORD_0" : 24
                    },
                    "indices" : 11,
                    "material" : 0
                }
            ]
        },
        {
            "name" : "Plane",
            "primitives" : [
                {
                    "attributes" : {
                        "POSITION" : 25,
                        "NORMAL" : 26,
                        "TEXCOORD_0" : 27
                    },
                    "indices" : 28,
                    "material" : 0
                }
            ]
        }
    ],
    "textures" : [
        {
            "sampler" : 0,
            "source" : 0
        }
    ],
    "images" : [
        {
            "bufferView" : 4,
            "mimeType" : "image/png",
            "name" : "Outlines"
        }
    ],
    "accessors" : [
        {
            "bufferView" : 0,
            "componentType" : 5126,
            "count" : 76,
            "max" : [
                1,
                0.6508298516273499,
                1
            ],
            "min" : [
                -1,
                0,
                -1
            ],
            "type" : "VEC3"
        },
        {
            "bufferView" : 1,
            "componentType" : 5126,
            "count" : 76,
            "type" : "VEC3"
        },
        {
            "bufferView" : 2,
            "componentType" : 5126,
            "count" : 76,
            "type" : "VEC2"
        },
        {
            "bufferView" : 3,
            "componentType" : 5123,
            "count" : 132,
            "type" : "SCALAR"
        },
        {
            "bufferView" : 5,
            "componentType" : 5126,
            "count" : 48,
            "max" : [
                0.9944221377372742,
                0.3018771708011627,
                0.9944221377372742
            ],
            "min" : [
                -0.9944221377372742,
                0,
                -0.9944221377372742
            ],
            "type" : "VEC3"
        },
        {
            "bufferView" : 6,
            "componentType" : 5126,
            "count" : 48,
            "type" : "VEC3"
        },
        {
            "bufferView" : 7,
            "componentType" : 5126,
            "count" : 48,
            "type" : "VEC2"
        },
        {
            "bufferView" : 8,
            "componentType" : 5123,
            "count" : 84,
            "type" : "SCALAR"
        },
        {
            "bufferView" : 9,
            "componentType" : 5126,
            "count" : 24,
            "max" : [
                0.5479100346565247,
                0.5479100346565247,
                0.27395501732826233
            ],
            "min" : [
                0,
                0,
                -0.2739550471305847
            ],
            "type" : "VEC3"
        },
        {
            "bufferView" : 10,
            "componentType" : 5126,
            "count" : 24,
            "type" : "VEC3"
        },
        {
            "bufferView" : 11,
            "componentType" : 5126,
            "count" : 24,
            "type" : "VEC2"
        },
        {
            "bufferView" : 12,
            "componentType" : 5123,
            "count" : 36,
            "type" : "SCALAR"
        },
        {
            "bufferView" : 13,
            "componentType" : 5126,
            "count" : 48,
            "max" : [
                0.8065366148948669,
                0.8424334526062012,
                0.8065366148948669
            ],
            "min" : [
                -0.8065366148948669,
                0.6508298516273499,
                -0.8065366148948669
            ],
            "type" : "VEC3"
        },
        {
            "bufferView" : 14,
            "componentType" : 5126,
            "count" : 48,
            "type" : "VEC3"
        },
        {
            "bufferView" : 15,
            "componentType" : 5126,
            "count" : 48,
            "type" : "VEC2"
        },
        {
            "bufferView" : 16,
            "componentType" : 5123,
            "count" : 84,
            "type" : "SCALAR"
        },
        {
            "bufferView" : 17,
            "componentType" : 5126,
            "count" : 24,
            "max" : [
                0.5479100346565247,
                0.5479100346565247,
                0.27395501732826233
            ],
            "min" : [
                0,
                0,
                -0.2739550471305847
            ],
            "type" : "VEC3"
        },
        {
            "bufferView" : 18,
            "componentType" : 5126,
            "count" : 24,
            "type" : "VEC3"
        },
        {
            "bufferView" : 19,
            "componentType" : 5126,
            "count" : 24,
            "type" : "VEC2"
        },
        {
            "bufferView" : 20,
            "componentType" : 5126,
            "count" : 24,
            "max" : [
                0.5479100346565247,
                0.5479100346565247,
                0.27395501732826233
            ],
            "min" : [
                0,
                0,
                -0.2739550471305847
            ],
            "type" : "VEC3"
        },
        {
            "bufferView" : 21,
            "componentType" : 5126,
            "count" : 24,
            "type" : "VEC3"
        },
        {
            "bufferView" : 22,
            "componentType" : 5126,
            "count" : 24,
            "type" : "VEC2"
        },
        {
            "bufferView" : 23,
            "componentType" : 5126,
            "count" : 24,
            "max" : [
                0.5479100346565247,
                0.5479100346565247,
                0.27395501732826233
            ],
            "min" : [
                0,
                0,
                -0.2739550471305847
            ],
            "type" : "VEC3"
        },
        {
            "bufferView" : 24,
            "componentType" : 5126,
            "count" : 24,
            "type" : "VEC3"
        },
        {
            "bufferView" : 25,
            "componentType" : 5126,
            "count" : 24,
            "type" : "VEC2"
        },
        {
            "bufferView" : 26,
            "componentType" : 5126,
            "count" : 89,
            "max" : [
                1.3723689317703247,
                0,
                1.3743128776550293
            ],
            "min" : [
                -1.3723689317703247,
                0,
                -1.3743128776550293
            ],
            "type" : "VEC3"
        },
        {
            "bufferView" : 27,
            "componentType" : 5126,
            "count" : 89,
            "type" : "VEC3"
        },
        {
            "bufferView" : 28,
            "componentType" : 5126,
            "count" : 89,
            "type" : "VEC2"
        },
        {
            "bufferView" : 29,
            "componentType" : 5123,
            "count" : 312,
            "type" : "SCALAR"
        }
    ],
    "bufferViews" : [
        {
            "buffer" : 0,
            "byteLength" : 912,
            "byteOffset" : 0
        },
        {
            "buffer" : 0,
            "byteLength" : 912,
            "byteOffset" : 912
        },
        {
            "buffer" : 0,
            "byteLength" : 608,
            "byteOffset" : 1824
        },
        {
            "buffer" : 0,
            "byteLength" : 264,
            "byteOffset" : 2432
        },
        {
            "buffer" : 0,
            "byteLength" : 223949,
            "byteOffset" : 2696
        },
        {
            "buffer" : 0,
            "byteLength" : 576,
            "byteOffset" : 226648
        },
        {
            "buffer" : 0,
            "byteLength" : 576,
            "byteOffset" : 227224
        },
        {
            "buffer" : 0,
            "byteLength" : 384,
            "byteOffset" : 227800
        },
        {
            "buffer" : 0,
            "byteLength" : 168,
            "byteOffset" : 228184
        },
        {
            "buffer" : 0,
            "byteLength" : 288,
            "byteOffset" : 228352
        },
        {
            "buffer" : 0,
            "byteLength" : 288,
            "byteOffset" : 228640
        },
        {
            "buffer" : 0,
            "byteLength" : 192,
            "byteOffset" : 228928
        },
        {
            "buffer" : 0,
            "byteLength" : 72,
            "byteOffset" : 229120
        },
        {
            "buffer" : 0,
            "byteLength" : 576,
            "byteOffset" : 229192
        },
        {
            "buffer" : 0,
            "byteLength" : 576,
            "byteOffset" : 229768
        },
        {
            "buffer" : 0,
            "byteLength" : 384,
            "byteOffset" : 230344
        },
        {
            "buffer" : 0,
            "byteLength" : 168,
            "byteOffset" : 230728
        },
        {
            "buffer" : 0,
            "byteLength" : 288,
            "byteOffset" : 230896
        },
        {
            "buffer" : 0,
            "byteLength" : 288,
            "byteOffset" : 231184
        },
        {
            "buffer" : 0,
            "byteLength" : 192,
            "byteOffset" : 231472
        },
        {
            "buffer" : 0,
            "byteLength" : 288,
            "byteOffset" : 231664
        },
        {
            "buffer" : 0,
            "byteLength" : 288,
            "byteOffset" : 231952
        },
        {
            "buffer" : 0,
            "byteLength" : 192,
            "byteOffset" : 232240
        },
        {
            "buffer" : 0,
            "byteLength" : 288,
            "byteOffset" : 232432
        },
        {
            "buffer" : 0,
            "byteLength" : 288,
            "byteOffset" : 232720
        },
        {
            "buffer" : 0,
            "byteLength" : 192,
            "byteOffset" : 233008
        },
        {
            "buffer" : 0,
            "byteLength" : 1068,
            "byteOffset" : 233200
        },
        {
            "buffer" : 0,
            "byteLength" : 1068,
            "byteOffset" : 234268
        },
        {
            "buffer" : 0,
            "byteLength" : 712,
            "byteOffset" : 235336
        },
        {
            "buffer" : 0,
            "byteLength" : 624,
            "byteOffset" : 236048
        }
    ],
    "samplers" : [
        {
            "magFilter" : 9729,
            "minFilter" : 9987
        }
    ],
    "buffers" : [
        {
            "byteLength" : 236672,
            "uri" : "data:application/octet-stream;base64,"
        }
    ]
}
