{
    "asset" : {
        "generator" : "Khronos glTF Blender I/O v1.6.16",
        "version" : "2.0"
    },
    "scene" : 0,
    "scenes" : [
        {
            "name" : "Scene",
            "nodes" : [
                0,
                1
            ]
        }
    ],
    "nodes" : [
        {
            "mesh" : 0,
            "name" : "Text"
        },
        {
            "mesh" : 1,
            "name" : "Text.001"
        }
    ],
    "materials" : [
        {
            "doubleSided" : true,
            "emissiveFactor" : [
                1,
                0,
                0.00040516434819437563
            ],
            "name" : "Material.001",
            "pbrMetallicRoughness" : {
                "baseColorFactor" : [
                    0,
                    0,
                    0,
                    1
                ],
                "metallicFactor" : 0,
                "roughnessFactor" : 0.5
            }
        },
        {
            "doubleSided" : true,
            "emissiveFactor" : [
                1,
                1,
                1
            ],
            "name" : "Material.002",
            "pbrMetallicRoughness" : {
                "baseColorFactor" : [
                    0,
                    0,
                    0,
                    1
                ],
                "metallicFactor" : 0,
                "roughnessFactor" : 0.5
            }
        }
    ],
    "meshes" : [
        {
            "name" : "Text",
            "primitives" : [
                {
                    "attributes" : {
                        "POSITION" : 0,
                        "NORMAL" : 1,
                        "TEXCOORD_0" : 2
                    },
                    "indices" : 3,
                    "material" : 0
                }
            ]
        },
        {
            "name" : "Text.001",
            "primitives" : [
                {
                    "attributes" : {
                        "POSITION" : 4,
                        "NORMAL" : 5,
                        "TEXCOORD_0" : 6
                    },
                    "indices" : 7,
                    "material" : 1
                }
            ]
        }
    ],
    "accessors" : [
        {
            "bufferView" : 0,
            "componentType" : 5126,
            "count" : 2352,
            "max" : [
                1.352500081062317,
                0.1340000033378601,
                0.30900001525878906
            ],
            "min" : [
                -1.4275000095367432,
                -0.1340000033378601,
                -0.39100003242492676
            ],
            "type" : "VEC3"
        },
        {
            "bufferView" : 1,
            "componentType" : 5126,
            "count" : 2352,
            "type" : "VEC3"
        },
        {
            "bufferView" : 2,
            "componentType" : 5126,
            "count" : 2352,
            "type" : "VEC2"
        },
        {
            "bufferView" : 3,
            "componentType" : 5123,
            "count" : 4320,
            "type" : "SCALAR"
        },
        {
            "bufferView" : 4,
            "componentType" : 5126,
            "count" : 2376,
            "max" : [
                1.3855758905410767,
                0.07199999690055847,
                0.3420758545398712
            ],
            "min" : [
                -1.476294755935669,
                -0.07199999690055847,
                -0.42420798540115356
            ],
            "type" : "VEC3"
        },
        {
            "bufferView" : 5,
            "componentType" : 5126,
            "count" : 2376,
            "type" : "VEC3"
        },
        {
            "bufferView" : 6,
            "componentType" : 5126,
            "count" : 2376,
            "type" : "VEC2"
        },
        {
            "bufferView" : 7,
            "componentType" : 5123,
            "count" : 4320,
            "type" : "SCALAR"
        }
    ],
    "bufferViews" : [
        {
            "buffer" : 0,
            "byteLength" : 28224,
            "byteOffset" : 0
        },
        {
            "buffer" : 0,
            "byteLength" : 28224,
            "byteOffset" : 28224
        },
        {
            "buffer" : 0,
            "byteLength" : 18816,
            "byteOffset" : 56448
        },
        {
            "buffer" : 0,
            "byteLength" : 8640,
            "byteOffset" : 75264
        },
        {
            "buffer" : 0,
            "byteLength" : 28512,
            "byteOffset" : 83904
        },
        {
            "buffer" : 0,
            "byteLength" : 28512,
            "byteOffset" : 112416
        },
        {
            "buffer" : 0,
            "byteLength" : 19008,
            "byteOffset" : 140928
        },
        {
            "buffer" : 0,
            "byteLength" : 8640,
            "byteOffset" : 159936
        }
    ],
    "buffers" : [
        {
            "byteLength" : 168576,
            "uri" : "textsimple.bin"
        }
    ]
}
